<svg width="18" height="20" viewBox="0 0 18 20" fill="none" xmlns="http://www.w3.org/2000/svg">
<path d="M8.99996 15.8335C9.16478 15.8335 9.32589 15.7846 9.46294 15.6931C9.59998 15.6015 9.70679 15.4713 9.76986 15.3191C9.83293 15.1668 9.84944 14.9992 9.81728 14.8376C9.78513 14.6759 9.70576 14.5274 9.58922 14.4109C9.47267 14.2944 9.32419 14.215 9.16253 14.1828C9.00088 14.1507 8.83333 14.1672 8.68106 14.2303C8.52878 14.2933 8.39864 14.4001 8.30707 14.5372C8.2155 14.6742 8.16663 14.8353 8.16663 15.0002C8.16663 15.2212 8.25442 15.4331 8.4107 15.5894C8.56698 15.7457 8.77895 15.8335 8.99996 15.8335ZM13.1666 15.8335C13.3314 15.8335 13.4926 15.7846 13.6296 15.6931C13.7666 15.6015 13.8735 15.4713 13.9365 15.3191C13.9996 15.1668 14.0161 14.9992 13.9839 14.8376C13.9518 14.6759 13.8724 14.5274 13.7559 14.4109C13.6393 14.2944 13.4909 14.215 13.3292 14.1828C13.1676 14.1507 13 14.1672 12.8477 14.2303C12.6955 14.2933 12.5653 14.4001 12.4737 14.5372C12.3822 14.6742 12.3333 14.8353 12.3333 15.0002C12.3333 15.2212 12.4211 15.4331 12.5774 15.5894C12.7337 15.7457 12.9456 15.8335 13.1666 15.8335ZM13.1666 12.5002C13.3314 12.5002 13.4926 12.4513 13.6296 12.3597C13.7666 12.2682 13.8735 12.138 13.9365 11.9857C13.9996 11.8335 14.0161 11.6659 13.9839 11.5043C13.9518 11.3426 13.8724 11.1941 13.7559 11.0776C13.6393 10.961 13.4909 10.8817 13.3292 10.8495C13.1676 10.8174 13 10.8339 12.8477 10.8969C12.6955 10.96 12.5653 11.0668 12.4737 11.2039C12.3822 11.3409 12.3333 11.502 12.3333 11.6668C12.3333 11.8878 12.4211 12.0998 12.5774 12.2561C12.7337 12.4124 12.9456 12.5002 13.1666 12.5002ZM8.99996 12.5002C9.16478 12.5002 9.32589 12.4513 9.46294 12.3597C9.59998 12.2682 9.70679 12.138 9.76986 11.9857C9.83293 11.8335 9.84944 11.6659 9.81728 11.5043C9.78513 11.3426 9.70576 11.1941 9.58922 11.0776C9.47267 10.961 9.32419 10.8817 9.16253 10.8495C9.00088 10.8174 8.83333 10.8339 8.68106 10.8969C8.52878 10.96 8.39864 11.0668 8.30707 11.2039C8.2155 11.3409 8.16663 11.502 8.16663 11.6668C8.16663 11.8878 8.25442 12.0998 8.4107 12.2561C8.56698 12.4124 8.77895 12.5002 8.99996 12.5002ZM14.8333 2.50016H14V1.66683C14 1.44582 13.9122 1.23385 13.7559 1.07757C13.5996 0.921293 13.3876 0.833496 13.1666 0.833496C12.9456 0.833496 12.7337 0.921293 12.5774 1.07757C12.4211 1.23385 12.3333 1.44582 12.3333 1.66683V2.50016H5.66663V1.66683C5.66663 1.44582 5.57883 1.23385 5.42255 1.07757C5.26627 0.921293 5.05431 0.833496 4.83329 0.833496C4.61228 0.833496 4.40032 0.921293 4.24404 1.07757C4.08776 1.23385 3.99996 1.44582 3.99996 1.66683V2.50016H3.16663C2.50358 2.50016 1.8677 2.76355 1.39886 3.2324C0.930018 3.70124 0.666626 4.33712 0.666626 5.00016V16.6668C0.666626 17.3299 0.930018 17.9658 1.39886 18.4346C1.8677 18.9034 2.50358 19.1668 3.16663 19.1668H14.8333C15.4963 19.1668 16.1322 18.9034 16.6011 18.4346C17.0699 17.9658 17.3333 17.3299 17.3333 16.6668V5.00016C17.3333 4.33712 17.0699 3.70124 16.6011 3.2324C16.1322 2.76355 15.4963 2.50016 14.8333 2.50016ZM15.6666 16.6668C15.6666 16.8878 15.5788 17.0998 15.4225 17.2561C15.2663 17.4124 15.0543 17.5002 14.8333 17.5002H3.16663C2.94561 17.5002 2.73365 17.4124 2.57737 17.2561C2.42109 17.0998 2.33329 16.8878 2.33329 16.6668V9.16683H15.6666V16.6668ZM15.6666 7.50016H2.33329V5.00016C2.33329 4.77915 2.42109 4.56719 2.57737 4.41091C2.73365 4.25463 2.94561 4.16683 3.16663 4.16683H3.99996V5.00016C3.99996 5.22118 4.08776 5.43314 4.24404 5.58942C4.40032 5.7457 4.61228 5.8335 4.83329 5.8335C5.05431 5.8335 5.26627 5.7457 5.42255 5.58942C5.57883 5.43314 5.66663 5.22118 5.66663 5.00016V4.16683H12.3333V5.00016C12.3333 5.22118 12.4211 5.43314 12.5774 5.58942C12.7337 5.7457 12.9456 5.8335 13.1666 5.8335C13.3876 5.8335 13.5996 5.7457 13.7559 5.58942C13.9122 5.43314 14 5.22118 14 5.00016V4.16683H14.8333C15.0543 4.16683 15.2663 4.25463 15.4225 4.41091C15.5788 4.56719 15.6666 4.77915 15.6666 5.00016V7.50016ZM4.83329 12.5002C4.99811 12.5002 5.15923 12.4513 5.29627 12.3597C5.43331 12.2682 5.54012 12.138 5.60319 11.9857C5.66627 11.8335 5.68277 11.6659 5.65061 11.5043C5.61846 11.3426 5.53909 11.1941 5.42255 11.0776C5.306 10.961 5.15752 10.8817 4.99587 10.8495C4.83422 10.8174 4.66666 10.8339 4.51439 10.8969C4.36212 10.96 4.23197 11.0668 4.1404 11.2039C4.04883 11.3409 3.99996 11.502 3.99996 11.6668C3.99996 11.8878 4.08776 12.0998 4.24404 12.2561C4.40032 12.4124 4.61228 12.5002 4.83329 12.5002ZM4.83329 15.8335C4.99811 15.8335 5.15923 15.7846 5.29627 15.6931C5.43331 15.6015 5.54012 15.4713 5.60319 15.3191C5.66627 15.1668 5.68277 14.9992 5.65061 14.8376C5.61846 14.6759 5.53909 14.5274 5.42255 14.4109C5.306 14.2944 5.15752 14.215 4.99587 14.1828C4.83422 14.1507 4.66666 14.1672 4.51439 14.2303C4.36212 14.2933 4.23197 14.4001 4.1404 14.5372C4.04883 14.6742 3.99996 14.8353 3.99996 15.0002C3.99996 15.2212 4.08776 15.4331 4.24404 15.5894C4.40032 15.7457 4.61228 15.8335 4.83329 15.8335Z" fill="#E42346"/>
</svg>
