<svg width="18" height="18" viewBox="0 0 18 18" fill="none" xmlns="http://www.w3.org/2000/svg">
<path d="M9.00002 0.666456C7.72326 0.664146 6.46304 0.955239 5.31664 1.51727C4.17023 2.07929 3.1683 2.89722 2.38817 3.90792C1.60804 4.91863 1.07058 6.09507 0.817267 7.34645C0.563959 8.59783 0.601578 9.89069 0.92722 11.1252C1.25286 12.3598 1.85782 13.503 2.6954 14.4666C3.53298 15.4302 4.58078 16.1885 5.75792 16.6829C6.93507 17.1773 8.21008 17.3947 9.48455 17.3181C10.759 17.2416 11.9988 16.8732 13.1084 16.2415H13.1667H13.2084C14.8127 15.3281 16.0684 13.9079 16.7783 12.2037C17.4882 10.4995 17.6121 8.60787 17.1305 6.82565C16.649 5.04343 15.5893 3.47157 14.1177 2.3568C12.6461 1.24203 10.8461 0.647477 9.00002 0.666456ZM9.83335 2.39146C11.3 2.57745 12.6633 3.2457 13.7087 4.29111C14.7541 5.33652 15.4224 6.69977 15.6084 8.16646H9.83335V2.39146ZM9.00002 15.6665C7.31211 15.6549 5.6914 15.0036 4.46497 13.8438C3.23854 12.6841 2.49769 11.1023 2.39194 9.41762C2.28619 7.73299 2.8234 6.07095 3.89517 4.76692C4.96694 3.4629 6.49347 2.61397 8.16669 2.39146V8.99979C8.16997 9.09956 8.18968 9.1981 8.22502 9.29146V9.35812V9.41646L11.5584 15.1415C10.7498 15.4875 9.87951 15.6661 9.00002 15.6665ZM13.025 14.2998L10.4417 9.83312H15.6084C15.4962 10.7119 15.2099 11.5596 14.7664 12.3265C14.3228 13.0934 13.7308 13.7643 13.025 14.2998Z" fill="#25282B"/>
</svg>
