<svg width="16" height="16" viewBox="0 0 16 16" fill="none" xmlns="http://www.w3.org/2000/svg">
<path d="M15.2261 3.31445V0.8125C15.2261 0.466797 14.9468 0.1875 14.6011 0.1875H1.39796C1.05226 0.1875 0.772961 0.466797 0.772961 0.8125V3.31445C0.446789 3.33398 0.187024 3.60547 0.187024 3.9375V6.50977C0.185773 6.98251 0.281495 7.45048 0.468274 7.88477C0.552258 8.08398 0.655774 8.27148 0.772961 8.44922V15.1875C0.772961 15.5313 1.05226 15.8125 1.39796 15.8125H14.6011C14.9468 15.8125 15.2261 15.5332 15.2261 15.1875V8.44922C15.3451 8.27103 15.4471 8.08205 15.5308 7.88477C15.7163 7.44922 15.812 6.98633 15.812 6.50977V3.9375C15.812 3.60547 15.5523 3.33398 15.2261 3.31445ZM2.17921 1.59375H13.8198V3.3125H2.17921V1.59375ZM9.24952 14.4082H6.74952V12.375H9.24952V14.4082ZM13.8198 14.4082H10.4995V11.75C10.4995 11.4043 10.2202 11.125 9.87452 11.125H6.12452C5.77882 11.125 5.49952 11.4043 5.49952 11.75V14.4082H2.17921V9.67773C2.23585 9.70508 2.29445 9.73242 2.35499 9.75586C2.79054 9.93945 3.25343 10.0312 3.72999 10.0312C4.20656 10.0312 4.66749 9.93945 5.10499 9.75586C5.37452 9.64258 5.62843 9.49805 5.86085 9.32422C5.86476 9.32227 5.86866 9.32227 5.87257 9.32422C6.10572 9.49879 6.3596 9.64377 6.62843 9.75586C7.06398 9.93945 7.52687 10.0312 8.00343 10.0312C8.47999 10.0312 8.94093 9.93945 9.37843 9.75586C9.64796 9.64258 9.90187 9.49805 10.1343 9.32422C10.1382 9.32227 10.1421 9.32227 10.146 9.32422C10.3792 9.49879 10.633 9.64377 10.9019 9.75586C11.3374 9.93945 11.8003 10.0312 12.2769 10.0312C12.7534 10.0312 13.2144 9.93945 13.6519 9.75586C13.7105 9.73047 13.7691 9.70508 13.8276 9.67773V14.4082H13.8198ZM14.4058 6.50977C14.4058 7.67773 13.4487 8.625 12.271 8.625C11.4741 8.625 10.7788 8.19336 10.4116 7.55273C10.355 7.45508 10.2534 7.39453 10.1401 7.39453H10.1284C10.0171 7.39453 9.91359 7.45508 9.85695 7.55273C9.66956 7.87952 9.399 8.15088 9.07276 8.33921C8.74651 8.52755 8.37622 8.62615 7.99952 8.625C7.2046 8.625 6.51124 8.19531 6.14405 7.55664C6.08546 7.45703 5.97999 7.39453 5.86476 7.39453C5.74952 7.39453 5.6421 7.45703 5.58546 7.55664C5.39699 7.88218 5.12608 8.15232 4.8 8.33988C4.47393 8.52743 4.1042 8.62577 3.72804 8.625C2.5503 8.625 1.59327 7.67773 1.59327 6.50977V4.72852C1.59327 4.72266 1.59718 4.71875 1.60304 4.71875H14.396C14.4019 4.71875 14.4058 4.72266 14.4058 4.72852V6.50977V6.50977Z" fill="#242528"/>
</svg>
