<svg width="16" height="18" viewBox="0 0 16 18" fill="none" xmlns="http://www.w3.org/2000/svg">
<path d="M14.6593 0.668457C14.5499 0.668395 14.4415 0.689907 14.3404 0.731764C14.2392 0.77362 14.1473 0.835001 14.0699 0.912396C13.9926 0.98979 13.9312 1.08168 13.8893 1.18281C13.8475 1.28395 13.8259 1.39234 13.826 1.50179V2.03239C13.1232 2.90381 12.2349 3.60755 11.2258 4.09239C10.2167 4.57723 9.11219 4.83096 7.99268 4.83512H2.99268C2.32986 4.83585 1.69439 5.09947 1.22571 5.56816C0.757024 6.03684 0.493399 6.67231 0.492676 7.33512V9.00179C0.493399 9.66461 0.757024 10.3001 1.22571 10.7688C1.69439 11.2374 2.32986 11.5011 2.99268 11.5018H3.39583L1.39356 16.1738C1.33915 16.3005 1.31706 16.4388 1.32927 16.5761C1.34148 16.7135 1.38762 16.8457 1.46354 16.9608C1.53945 17.0759 1.64277 17.1704 1.76422 17.2357C1.88566 17.3011 2.02144 17.3352 2.15934 17.3351H5.49268C5.6558 17.3352 5.81536 17.2874 5.95151 17.1975C6.08767 17.1077 6.19441 16.9798 6.25847 16.8298L8.52826 11.5335C9.55379 11.6088 10.553 11.8935 11.4642 12.3701C12.3754 12.8466 13.1792 13.505 13.826 14.3043V14.8351C13.826 15.0561 13.9138 15.2681 14.0701 15.4244C14.2264 15.5807 14.4383 15.6685 14.6593 15.6685C14.8804 15.6685 15.0923 15.5807 15.2486 15.4244C15.4049 15.2681 15.4927 15.0561 15.4927 14.8351V1.50179C15.4927 1.39234 15.4712 1.28395 15.4294 1.18281C15.3875 1.08168 15.3261 0.989788 15.2487 0.912393C15.1713 0.834998 15.0795 0.773618 14.9783 0.731761C14.8772 0.689905 14.7688 0.668394 14.6593 0.668457V0.668457ZM2.99268 9.83512C2.77171 9.83498 2.55983 9.74713 2.40358 9.59088C2.24734 9.43464 2.15949 9.22276 2.15934 9.00179V7.33512C2.15949 7.11416 2.24734 6.90228 2.40359 6.74604C2.55983 6.58979 2.77171 6.50194 2.99268 6.50179H3.82601V9.83512H2.99268ZM4.94336 15.6685H3.42318L5.20866 11.5018H6.72884L4.94336 15.6685ZM13.826 11.9366C12.1829 10.583 10.1216 9.84035 7.99268 9.83508H5.49268V6.50175H7.99268C10.1216 6.49631 12.1829 5.75355 13.826 4.3998V11.9366Z" fill="#25282B"/>
</svg>
