<svg width="14" height="12" viewBox="0 0 14 12" fill="#E42346" xmlns="http://www.w3.org/2000/svg">
<path d="M13.6133 5.73268C12.2666 2.60602 9.73326 0.666016 6.99992 0.666016C4.26659 0.666016 1.73326 2.60602 0.386589 5.73268C0.34988 5.81679 0.330933 5.90758 0.330933 5.99935C0.330933 6.09112 0.34988 6.1819 0.386589 6.26602C1.73326 9.39268 4.26659 11.3327 6.99992 11.3327C9.73326 11.3327 12.2666 9.39268 13.6133 6.26602C13.65 6.1819 13.6689 6.09112 13.6689 5.99935C13.6689 5.90758 13.65 5.81679 13.6133 5.73268ZM6.99992 9.99935C4.88659 9.99935 2.88659 8.47268 1.73326 5.99935C2.88659 3.52602 4.88659 1.99935 6.99992 1.99935C9.11326 1.99935 11.1133 3.52602 12.2666 5.99935C11.1133 8.47268 9.11326 9.99935 6.99992 9.99935ZM6.99992 3.33268C6.47251 3.33268 5.95693 3.48908 5.5184 3.7821C5.07987 4.07511 4.73808 4.49159 4.53624 4.97886C4.33441 5.46613 4.2816 6.00231 4.38449 6.51959C4.48739 7.03687 4.74136 7.51203 5.1143 7.88497C5.48724 8.25791 5.9624 8.51188 6.47968 8.61478C6.99696 8.71767 7.53314 8.66486 8.02041 8.46303C8.50768 8.26119 8.92416 7.9194 9.21717 7.48087C9.51019 7.04234 9.66659 6.52677 9.66659 5.99935C9.66659 5.2921 9.38564 4.61383 8.88554 4.11373C8.38544 3.61363 7.70717 3.33268 6.99992 3.33268ZM6.99992 7.33268C6.73621 7.33268 6.47843 7.25448 6.25916 7.10797C6.0399 6.96147 5.869 6.75323 5.76808 6.50959C5.66717 6.26596 5.64076 5.99787 5.69221 5.73923C5.74366 5.48059 5.87064 5.24301 6.05711 5.05654C6.24358 4.87007 6.48116 4.74308 6.7398 4.69163C6.99844 4.64019 7.26653 4.66659 7.51017 4.76751C7.7538 4.86843 7.96204 5.03932 8.10855 5.25859C8.25506 5.47785 8.33325 5.73564 8.33325 5.99935C8.33325 6.35297 8.19278 6.69211 7.94273 6.94216C7.69268 7.19221 7.35354 7.33268 6.99992 7.33268Z" fill="#E42346"/>
</svg>
