<svg width="441" height="391" viewBox="0 0 441 391" fill="none" xmlns="http://www.w3.org/2000/svg">
<g clip-path="url(#clip0)">
<path d="M71.239 390.268C54.696 388.501 39.253 381.687 26.759 370.64C14.375 359.69 5.77795 345.55 1.89795 329.752C1.03205 326.225 0.186952 321.233 -0.114048 317.865C-0.261058 316.22 -0.332816 275.794 -0.331776 195.195C-0.330496 90.5148 -0.289398 74.5948 -0.0142367 71.9948C1.73146 55.4948 8.24966 40.4028 19.0358 27.8888C21.5707 24.9477 26.7254 19.9874 29.7458 17.5828C42.0638 7.7761 56.1028 2.0598 71.9858 0.382799C74.1609 0.153239 96.8728 0.101349 195.186 0.101349C310.266 0.101349 315.856 0.118829 318.816 0.487889C324.953 1.25486 329.713 2.28679 334.873 3.96949C363.165 13.1956 384.265 37.6625 389.1 66.8485C390.146 73.1635 390.128 72.5379 390.218 105.114L390.303 136.101H333.985L333.907 114.821C333.838 95.8845 333.789 93.3015 333.461 91.3615C331.496 79.7315 325.155 69.7545 315.722 63.4535C310.533 59.9867 305.457 57.9785 298.899 56.7973C297.111 56.4752 288.646 56.4398 196.899 56.3706C126.251 56.3173 95.9994 56.3631 93.9694 56.5265C74.8804 58.0606 59.7714 71.9545 56.3854 91.0875C56.1527 92.4024 56.1023 111.028 56.1023 195.618V298.548L56.6803 301.219C60.5247 318.985 74.5853 331.963 92.2623 334.062C93.7474 334.238 121.538 334.284 196.262 334.235L298.232 334.168L300.85 333.582C307.313 332.135 312.799 329.62 317.859 325.785C319.56 324.495 323.045 321.098 324.571 319.241C328.187 314.841 331.213 308.846 332.699 303.134C333.653 299.463 333.785 297.745 333.9 287.401L334.012 277.321H390.317L390.229 296.894C390.136 317.739 390.106 318.41 388.995 324.681C384.733 348.732 369.309 369.799 347.406 381.487C338.441 386.271 327.741 389.433 317.326 390.377C315.656 390.528 276.441 390.592 194.446 390.576C93.3061 390.557 73.5761 390.506 71.2461 390.257L71.239 390.268Z" fill="#39393B"/>
<path d="M124.159 305.244C114.588 304.016 105.446 299.593 98.467 292.814C90.9271 285.491 86.283 276.179 85.002 265.812C84.8505 264.586 84.7785 241.873 84.7785 195.259C84.7785 119.144 84.6777 124.701 86.1641 118.928C88.1198 111.333 92.2561 104.107 97.8511 98.5122C105.547 90.8169 115.409 86.2402 126.272 85.3232C128.233 85.1578 148.891 85.1104 196.779 85.1613C271.4 85.2407 265.422 85.133 270.829 86.4959C276.946 88.0378 283.127 91.1086 288.106 95.079C295.836 101.243 301.434 110.026 303.85 119.779C304.996 124.402 305.01 124.677 305.097 143.939L305.179 161.912H267.606L267.602 153.219C267.6 148.437 267.502 143.853 267.385 143.032C266.62 137.646 264.294 133.016 260.511 129.345C256.748 125.693 252.272 123.529 247.126 122.873C245.855 122.711 229.882 122.663 193.686 122.713C136.96 122.791 141.649 122.681 137.71 124.032C129.307 126.915 123.283 134.649 122.331 143.778C122.048 146.492 122.047 243.998 122.33 246.908C123.12 255.033 127.843 261.95 135.019 265.492C137.948 266.938 140.477 267.663 143.529 267.933C146.587 268.204 243.195 268.208 246.189 267.937C252.979 267.325 258.882 264.069 262.922 258.708C266.036 254.575 267.602 249.545 267.602 243.672V241.48H305.149L305.147 251.56C305.145 257.104 305.046 262.792 304.924 264.2C303.258 283.536 289.377 299.706 270.482 304.322C265.487 305.542 269.535 305.482 194.578 305.453C155.971 305.438 124.981 305.343 124.156 305.237L124.159 305.244Z" fill="#6B6C6F"/>
<path d="M365.425 266.16C363.836 265.419 362.878 264.23 362.274 262.248C361.994 261.332 355.776 239.87 348.455 214.555C341.134 189.24 335.081 168.528 335.003 168.528C334.925 168.528 327.741 182.52 319.039 199.621C301.599 233.892 302.598 232.131 300.195 232.844C298.821 233.252 298.259 233.25 296.845 232.83C294.637 232.174 294.913 232.612 281.893 209.167C275.312 197.316 269.862 187.554 269.782 187.473C269.702 187.392 267.669 190.94 265.264 195.357C262.859 199.774 260.603 203.72 260.252 204.125C259.901 204.53 259.133 205.085 258.545 205.359L257.477 205.856L225.63 205.858C190.462 205.86 193.135 205.97 191.458 204.456C188.577 201.853 189.076 197.461 192.479 195.46L193.477 194.874L252.886 194.661L258.884 183.674C262.183 177.631 265.101 172.397 265.367 172.042C265.634 171.687 266.368 171.111 266.998 170.763C269.171 169.562 272.217 170.047 273.763 171.84C274.075 172.201 279.702 182.164 286.268 193.979C292.834 205.794 298.258 215.458 298.321 215.455C298.385 215.452 305.876 200.808 314.97 182.913C326.137 160.938 331.771 150.066 332.329 149.417C333.314 148.272 334.365 147.694 335.816 147.502C337.955 147.218 340.475 148.511 341.398 150.364C341.611 150.791 347.429 170.677 354.326 194.554C361.224 218.431 366.928 238.037 367.003 238.121C367.078 238.206 369.284 228.654 371.906 216.894C374.527 205.135 376.847 195.168 377.062 194.746C377.491 193.902 378.596 192.848 379.666 192.263C380.317 191.908 381.991 191.886 408.623 191.886H436.89L437.771 192.357C438.914 192.969 440.268 194.518 440.586 195.578C441.415 198.346 440.215 201.221 437.752 202.368L436.677 202.869L386.641 202.873L386.442 203.353C386.332 203.617 383.355 216.841 379.825 232.74C376.295 248.639 373.27 262.129 373.103 262.719C372.204 265.888 368.449 267.569 365.423 266.158L365.425 266.16Z" fill="#EC1B2A"/>
</g>
<defs>
<clipPath id="clip0">
<rect width="441" height="391" fill="white"/>
</clipPath>
</defs>
</svg>
